<svg id="icon_company" xmlns="http://www.w3.org/2000/svg" width="20" height="20" viewBox="0 0 20 20">
  <rect id="Rectángulo_12" data-name="Rectángulo 12" width="20" height="20" fill="none"/>
  <g id="Grupo_1" data-name="Grupo 1" transform="translate(1.667 2.5)">
    <line id="Línea_1" data-name="Línea 1" y2="2.5" transform="translate(14.575 12.5)" fill="none" stroke="#94a3b8" stroke-linecap="round" stroke-linejoin="round" stroke-width="1.3"/>
    <rect id="Rectángulo_11" data-name="Rectángulo 11" width="4.167" height="5.833" rx="1.381" transform="translate(12.5 6.667)" fill="none" stroke="#94a3b8" stroke-linecap="round" stroke-linejoin="round" stroke-width="1.3"/>
    <line id="Línea_2" data-name="Línea 2" y2="1.667" transform="translate(5.417 13.333)" fill="none" stroke="#94a3b8" stroke-linecap="round" stroke-linejoin="round" stroke-width="1.3"/>
    <line id="Línea_3" data-name="Línea 3" x2="5" transform="translate(2.917 10.833)" fill="none" stroke="#94a3b8" stroke-linecap="round" stroke-linejoin="round" stroke-width="1.3"/>
    <line id="Línea_4" data-name="Línea 4" x2="5" transform="translate(2.917 8.333)" fill="none" stroke="#94a3b8" stroke-linecap="round" stroke-linejoin="round" stroke-width="1.3"/>
    <line id="Línea_5" data-name="Línea 5" x2="5" transform="translate(2.917 5.833)" fill="none" stroke="#94a3b8" stroke-linecap="round" stroke-linejoin="round" stroke-width="1.3"/>
    <path id="Trazado_40" data-name="Trazado 40" d="M17.583,9.667V3.833h0A.833.833,0,0,0,16.75,3H8.833A.833.833,0,0,0,8,3.833H8v2.5" transform="translate(-3 -3)" fill="none" stroke="#94a3b8" stroke-linecap="round" stroke-linejoin="round" stroke-width="1.3"/>
    <path id="Trazado_41" data-name="Trazado 41" d="M3,18.667V7.833H3A.833.833,0,0,1,3.833,7h7.5a.833.833,0,0,1,.833.833V18.667" transform="translate(-2.167 -3.667)" fill="none" stroke="#94a3b8" stroke-linecap="round" stroke-linejoin="round" stroke-width="1.3"/>
    <line id="Línea_6" data-name="Línea 6" x2="16.667" transform="translate(0 15)" fill="none" stroke="#94a3b8" stroke-linecap="round" stroke-linejoin="round" stroke-width="1.3"/>
  </g>
</svg>
