<svg id="icon_education" xmlns="http://www.w3.org/2000/svg" width="20" height="20" viewBox="0 0 20 20">
  <g id="Grupo_2" data-name="Grupo 2" transform="translate(2.13 2.917)">
    <path id="Trazado_42" data-name="Trazado 42" d="M8.512,4,3.367,6.854a1.577,1.577,0,0,0,0,2.757l5.145,2.858a3.944,3.944,0,0,0,3.828,0l5.145-2.858a1.577,1.577,0,0,0,0-2.757L12.34,4A3.944,3.944,0,0,0,8.512,4Z" transform="translate(-2.556 -3.5)" fill="none" stroke="#94a3b8" stroke-linecap="round" stroke-linejoin="round" stroke-width="1.3"/>
    <path id="Trazado_43" data-name="Trazado 43" d="M5.991,12.2v3.27a2.361,2.361,0,0,0,1.053,1.966l1.339.891a4.722,4.722,0,0,0,5.229,0l1.339-.891a2.36,2.36,0,0,0,1.053-1.966V12.2" transform="translate(-3.128 -4.95)" fill="none" stroke="#94a3b8" stroke-linecap="round" stroke-linejoin="round" stroke-width="1.3"/>
  </g>
  <path id="Trazado_44" data-name="Trazado 44" d="M0,0H20V20H0Z" fill="none"/>
</svg>
