<svg id="icon_company_location" xmlns="http://www.w3.org/2000/svg" width="20" height="20" viewBox="0 0 20 20">
  <path id="Trazado_37" data-name="Trazado 37" d="M0,0H20V20H0Z" fill="none"/>
  <path id="Trazado_38" data-name="Trazado 38" d="M11.5,12h0A2.5,2.5,0,0,1,9,9.5H9A2.5,2.5,0,0,1,11.5,7h0A2.5,2.5,0,0,1,14,9.5h0A2.5,2.5,0,0,1,11.5,12Z" transform="translate(-1.5 -1.167)" fill="none" stroke="#94a3b8" stroke-linecap="round" stroke-linejoin="round" stroke-width="1.3"/>
  <path id="Trazado_39" data-name="Trazado 39" d="M10.833,18S5,13.208,5,8.833a5.833,5.833,0,0,1,11.667,0C16.667,13.208,10.833,18,10.833,18Z" transform="translate(-0.833 -0.5)" fill="none" stroke="#94a3b8" stroke-linecap="round" stroke-linejoin="round" stroke-width="1.3"/>
</svg>
